<mxfile host="app.diagrams.net" modified="2023-10-21T22:49:47.066Z" agent="Mozilla/5.0 (Windows NT 10.0; Win64; x64) AppleWebKit/537.36 (KHTML, like Gecko) Chrome/118.0.0.0 Safari/537.36" etag="wuW1NX6BKlzkAz8ZWHex" version="22.0.6" type="github">
  <diagram name="Página-1" id="Ft3U0_Eo-aGqWZxOjGud">
    <mxGraphModel dx="1434" dy="750" grid="1" gridSize="10" guides="1" tooltips="1" connect="1" arrows="1" fold="1" page="1" pageScale="1" pageWidth="827" pageHeight="1169" math="0" shadow="0">
      <root>
        <mxCell id="0" />
        <mxCell id="1" parent="0" />
        <mxCell id="uraAplfnoRZAoDlfQLzU-1" value="Accidente_geografico" style="whiteSpace=wrap;html=1;align=center;" parent="1" vertex="1">
          <mxGeometry x="330" y="120" width="140" height="40" as="geometry" />
        </mxCell>
        <mxCell id="uraAplfnoRZAoDlfQLzU-2" value="" style="ellipse;whiteSpace=wrap;html=1;aspect=fixed;" parent="1" vertex="1">
          <mxGeometry x="390" y="220" width="20" height="20" as="geometry" />
        </mxCell>
        <mxCell id="uraAplfnoRZAoDlfQLzU-3" value="" style="triangle;whiteSpace=wrap;html=1;rotation=90;" parent="1" vertex="1">
          <mxGeometry x="375" y="250" width="50" height="50" as="geometry" />
        </mxCell>
        <mxCell id="uraAplfnoRZAoDlfQLzU-4" value="" style="endArrow=none;html=1;rounded=0;exitX=0.5;exitY=1;exitDx=0;exitDy=0;entryX=0.5;entryY=0;entryDx=0;entryDy=0;" parent="1" source="uraAplfnoRZAoDlfQLzU-1" target="uraAplfnoRZAoDlfQLzU-2" edge="1">
          <mxGeometry width="50" height="50" relative="1" as="geometry">
            <mxPoint x="390" y="430" as="sourcePoint" />
            <mxPoint x="440" y="380" as="targetPoint" />
          </mxGeometry>
        </mxCell>
        <mxCell id="uraAplfnoRZAoDlfQLzU-5" value="" style="endArrow=none;html=1;rounded=0;exitX=0.5;exitY=1;exitDx=0;exitDy=0;entryX=0;entryY=0.5;entryDx=0;entryDy=0;" parent="1" source="uraAplfnoRZAoDlfQLzU-2" target="uraAplfnoRZAoDlfQLzU-3" edge="1">
          <mxGeometry width="50" height="50" relative="1" as="geometry">
            <mxPoint x="390" y="460" as="sourcePoint" />
            <mxPoint x="440" y="410" as="targetPoint" />
          </mxGeometry>
        </mxCell>
        <mxCell id="uraAplfnoRZAoDlfQLzU-6" value="" style="endArrow=none;html=1;rounded=0;edgeStyle=orthogonalEdgeStyle;curved=1;" parent="1" edge="1">
          <mxGeometry width="50" height="50" relative="1" as="geometry">
            <mxPoint x="320" y="280" as="sourcePoint" />
            <mxPoint x="480" y="280" as="targetPoint" />
            <Array as="points">
              <mxPoint x="320" y="310" />
              <mxPoint x="480" y="310" />
            </Array>
          </mxGeometry>
        </mxCell>
        <mxCell id="uraAplfnoRZAoDlfQLzU-7" value="Lago" style="whiteSpace=wrap;html=1;align=center;" parent="1" vertex="1">
          <mxGeometry x="353" y="520" width="100" height="40" as="geometry" />
        </mxCell>
        <mxCell id="uraAplfnoRZAoDlfQLzU-8" value="ID" style="ellipse;whiteSpace=wrap;html=1;align=center;fontStyle=4;" parent="1" vertex="1">
          <mxGeometry x="320" y="40" width="100" height="40" as="geometry" />
        </mxCell>
        <mxCell id="uraAplfnoRZAoDlfQLzU-9" value="Nombre" style="ellipse;whiteSpace=wrap;html=1;align=center;" parent="1" vertex="1">
          <mxGeometry x="450" y="40" width="100" height="40" as="geometry" />
        </mxCell>
        <mxCell id="uraAplfnoRZAoDlfQLzU-10" value="Eje_vertical" style="ellipse;whiteSpace=wrap;html=1;align=center;" parent="1" vertex="1">
          <mxGeometry x="200" y="50" width="100" height="40" as="geometry" />
        </mxCell>
        <mxCell id="uraAplfnoRZAoDlfQLzU-11" value="Eje_horizontal" style="ellipse;whiteSpace=wrap;html=1;align=center;" parent="1" vertex="1">
          <mxGeometry x="190" y="120" width="100" height="40" as="geometry" />
        </mxCell>
        <mxCell id="uraAplfnoRZAoDlfQLzU-12" value="Extension" style="ellipse;whiteSpace=wrap;html=1;align=center;" parent="1" vertex="1">
          <mxGeometry x="353" y="600" width="100" height="40" as="geometry" />
        </mxCell>
        <mxCell id="uraAplfnoRZAoDlfQLzU-13" value="Montaña" style="whiteSpace=wrap;html=1;align=center;" parent="1" vertex="1">
          <mxGeometry x="183" y="520" width="100" height="40" as="geometry" />
        </mxCell>
        <mxCell id="uraAplfnoRZAoDlfQLzU-14" value="Altura" style="ellipse;whiteSpace=wrap;html=1;align=center;" parent="1" vertex="1">
          <mxGeometry x="183" y="600" width="100" height="40" as="geometry" />
        </mxCell>
        <mxCell id="uraAplfnoRZAoDlfQLzU-15" value="Rio" style="whiteSpace=wrap;html=1;align=center;" parent="1" vertex="1">
          <mxGeometry x="523" y="520" width="100" height="40" as="geometry" />
        </mxCell>
        <mxCell id="uraAplfnoRZAoDlfQLzU-16" value="Longitud" style="ellipse;whiteSpace=wrap;html=1;align=center;" parent="1" vertex="1">
          <mxGeometry x="523" y="600" width="100" height="40" as="geometry" />
        </mxCell>
        <mxCell id="uraAplfnoRZAoDlfQLzU-17" value="" style="endArrow=none;html=1;rounded=0;exitX=0.5;exitY=0;exitDx=0;exitDy=0;entryX=1;entryY=0.5;entryDx=0;entryDy=0;" parent="1" source="uraAplfnoRZAoDlfQLzU-7" target="uraAplfnoRZAoDlfQLzU-3" edge="1">
          <mxGeometry relative="1" as="geometry">
            <mxPoint x="333" y="460" as="sourcePoint" />
            <mxPoint x="493" y="460" as="targetPoint" />
          </mxGeometry>
        </mxCell>
        <mxCell id="uraAplfnoRZAoDlfQLzU-18" value="" style="endArrow=none;html=1;rounded=0;exitX=0.5;exitY=0;exitDx=0;exitDy=0;entryX=0.5;entryY=1;entryDx=0;entryDy=0;" parent="1" source="uraAplfnoRZAoDlfQLzU-13" target="uraAplfnoRZAoDlfQLzU-3" edge="1">
          <mxGeometry relative="1" as="geometry">
            <mxPoint x="413" y="530" as="sourcePoint" />
            <mxPoint x="413" y="440" as="targetPoint" />
          </mxGeometry>
        </mxCell>
        <mxCell id="uraAplfnoRZAoDlfQLzU-19" value="" style="endArrow=none;html=1;rounded=0;exitX=0.5;exitY=0;exitDx=0;exitDy=0;entryX=0.5;entryY=0;entryDx=0;entryDy=0;" parent="1" source="uraAplfnoRZAoDlfQLzU-15" target="uraAplfnoRZAoDlfQLzU-3" edge="1">
          <mxGeometry relative="1" as="geometry">
            <mxPoint x="243" y="530" as="sourcePoint" />
            <mxPoint x="401" y="415" as="targetPoint" />
          </mxGeometry>
        </mxCell>
        <mxCell id="uraAplfnoRZAoDlfQLzU-20" value="Pais" style="whiteSpace=wrap;html=1;align=center;" parent="1" vertex="1">
          <mxGeometry x="830" y="120" width="100" height="40" as="geometry" />
        </mxCell>
        <mxCell id="uraAplfnoRZAoDlfQLzU-21" value="Nombre" style="ellipse;whiteSpace=wrap;html=1;align=center;fontStyle=4;" parent="1" vertex="1">
          <mxGeometry x="990" y="120" width="100" height="40" as="geometry" />
        </mxCell>
        <mxCell id="uraAplfnoRZAoDlfQLzU-22" value="Ubicar" style="shape=rhombus;perimeter=rhombusPerimeter;whiteSpace=wrap;html=1;align=center;" parent="1" vertex="1">
          <mxGeometry x="590" y="110" width="120" height="60" as="geometry" />
        </mxCell>
        <mxCell id="uraAplfnoRZAoDlfQLzU-23" value="Extension" style="ellipse;whiteSpace=wrap;html=1;align=center;" parent="1" vertex="1">
          <mxGeometry x="990" y="200" width="100" height="40" as="geometry" />
        </mxCell>
        <mxCell id="uraAplfnoRZAoDlfQLzU-24" value="Poblacion" style="ellipse;whiteSpace=wrap;html=1;align=center;" parent="1" vertex="1">
          <mxGeometry x="830" y="40" width="100" height="40" as="geometry" />
        </mxCell>
        <mxCell id="uraAplfnoRZAoDlfQLzU-25" value="1, N" style="text;strokeColor=none;fillColor=none;spacingLeft=4;spacingRight=4;overflow=hidden;rotatable=0;points=[[0,0.5],[1,0.5]];portConstraint=eastwest;fontSize=12;whiteSpace=wrap;html=1;" parent="1" vertex="1">
          <mxGeometry x="770" y="125" width="40" height="30" as="geometry" />
        </mxCell>
        <mxCell id="uraAplfnoRZAoDlfQLzU-26" value="1, N" style="text;strokeColor=none;fillColor=none;spacingLeft=4;spacingRight=4;overflow=hidden;rotatable=0;points=[[0,0.5],[1,0.5]];portConstraint=eastwest;fontSize=12;whiteSpace=wrap;html=1;" parent="1" vertex="1">
          <mxGeometry x="490" y="125" width="40" height="30" as="geometry" />
        </mxCell>
        <mxCell id="uraAplfnoRZAoDlfQLzU-27" value="" style="endArrow=none;html=1;rounded=0;exitX=1;exitY=0.5;exitDx=0;exitDy=0;entryX=0;entryY=0.5;entryDx=0;entryDy=0;" parent="1" source="uraAplfnoRZAoDlfQLzU-1" target="uraAplfnoRZAoDlfQLzU-26" edge="1">
          <mxGeometry relative="1" as="geometry">
            <mxPoint x="630" y="300" as="sourcePoint" />
            <mxPoint x="790" y="300" as="targetPoint" />
          </mxGeometry>
        </mxCell>
        <mxCell id="uraAplfnoRZAoDlfQLzU-28" value="" style="endArrow=none;html=1;rounded=0;exitX=1;exitY=0.5;exitDx=0;exitDy=0;" parent="1" source="uraAplfnoRZAoDlfQLzU-26" target="uraAplfnoRZAoDlfQLzU-22" edge="1">
          <mxGeometry relative="1" as="geometry">
            <mxPoint x="630" y="300" as="sourcePoint" />
            <mxPoint x="790" y="300" as="targetPoint" />
          </mxGeometry>
        </mxCell>
        <mxCell id="uraAplfnoRZAoDlfQLzU-29" value="" style="endArrow=none;html=1;rounded=0;exitX=0;exitY=0.5;exitDx=0;exitDy=0;entryX=1;entryY=0.5;entryDx=0;entryDy=0;" parent="1" source="uraAplfnoRZAoDlfQLzU-25" target="uraAplfnoRZAoDlfQLzU-22" edge="1">
          <mxGeometry relative="1" as="geometry">
            <mxPoint x="540" y="150" as="sourcePoint" />
            <mxPoint x="600" y="150" as="targetPoint" />
          </mxGeometry>
        </mxCell>
        <mxCell id="uraAplfnoRZAoDlfQLzU-30" value="" style="endArrow=none;html=1;rounded=0;exitX=0;exitY=0.5;exitDx=0;exitDy=0;entryX=1;entryY=0.5;entryDx=0;entryDy=0;" parent="1" source="uraAplfnoRZAoDlfQLzU-20" target="uraAplfnoRZAoDlfQLzU-25" edge="1">
          <mxGeometry relative="1" as="geometry">
            <mxPoint x="550" y="160" as="sourcePoint" />
            <mxPoint x="610" y="160" as="targetPoint" />
          </mxGeometry>
        </mxCell>
        <mxCell id="uraAplfnoRZAoDlfQLzU-31" value="Localidad" style="whiteSpace=wrap;html=1;align=center;" parent="1" vertex="1">
          <mxGeometry x="830" y="480" width="100" height="40" as="geometry" />
        </mxCell>
        <mxCell id="uraAplfnoRZAoDlfQLzU-32" value="ID" style="ellipse;whiteSpace=wrap;html=1;align=center;fontStyle=4;" parent="1" vertex="1">
          <mxGeometry x="1000" y="480" width="100" height="40" as="geometry" />
        </mxCell>
        <mxCell id="uraAplfnoRZAoDlfQLzU-33" value="Nombre" style="ellipse;whiteSpace=wrap;html=1;align=center;" parent="1" vertex="1">
          <mxGeometry x="1000" y="560" width="100" height="40" as="geometry" />
        </mxCell>
        <mxCell id="uraAplfnoRZAoDlfQLzU-34" value="Transcurrir" style="shape=rhombus;perimeter=rhombusPerimeter;whiteSpace=wrap;html=1;align=center;" parent="1" vertex="1">
          <mxGeometry x="710" y="590" width="120" height="60" as="geometry" />
        </mxCell>
        <mxCell id="uraAplfnoRZAoDlfQLzU-35" value="0, N" style="text;strokeColor=none;fillColor=none;spacingLeft=4;spacingRight=4;overflow=hidden;rotatable=0;points=[[0,0.5],[1,0.5]];portConstraint=eastwest;fontSize=12;whiteSpace=wrap;html=1;" parent="1" vertex="1">
          <mxGeometry x="860" y="540" width="40" height="30" as="geometry" />
        </mxCell>
        <mxCell id="uraAplfnoRZAoDlfQLzU-36" value="0, N" style="text;strokeColor=none;fillColor=none;spacingLeft=4;spacingRight=4;overflow=hidden;rotatable=0;points=[[0,0.5],[1,0.5]];portConstraint=eastwest;fontSize=12;whiteSpace=wrap;html=1;" parent="1" vertex="1">
          <mxGeometry x="643" y="525" width="40" height="30" as="geometry" />
        </mxCell>
        <mxCell id="uraAplfnoRZAoDlfQLzU-37" value="" style="endArrow=none;html=1;rounded=0;exitX=1;exitY=0.5;exitDx=0;exitDy=0;entryX=0;entryY=0.5;entryDx=0;entryDy=0;" parent="1" source="uraAplfnoRZAoDlfQLzU-15" target="uraAplfnoRZAoDlfQLzU-36" edge="1">
          <mxGeometry relative="1" as="geometry">
            <mxPoint x="633" y="460" as="sourcePoint" />
            <mxPoint x="793" y="460" as="targetPoint" />
          </mxGeometry>
        </mxCell>
        <mxCell id="uraAplfnoRZAoDlfQLzU-38" value="" style="endArrow=none;html=1;rounded=0;exitX=1;exitY=0.5;exitDx=0;exitDy=0;entryX=0;entryY=0.5;entryDx=0;entryDy=0;" parent="1" source="uraAplfnoRZAoDlfQLzU-36" target="uraAplfnoRZAoDlfQLzU-34" edge="1">
          <mxGeometry relative="1" as="geometry">
            <mxPoint x="633" y="460" as="sourcePoint" />
            <mxPoint x="793" y="460" as="targetPoint" />
            <Array as="points">
              <mxPoint x="710" y="540" />
            </Array>
          </mxGeometry>
        </mxCell>
        <mxCell id="uraAplfnoRZAoDlfQLzU-39" value="" style="endArrow=none;html=1;rounded=0;exitX=1;exitY=0.5;exitDx=0;exitDy=0;entryX=0.5;entryY=0.967;entryDx=0;entryDy=0;entryPerimeter=0;" parent="1" source="uraAplfnoRZAoDlfQLzU-34" target="uraAplfnoRZAoDlfQLzU-35" edge="1">
          <mxGeometry relative="1" as="geometry">
            <mxPoint x="633" y="460" as="sourcePoint" />
            <mxPoint x="793" y="460" as="targetPoint" />
            <Array as="points">
              <mxPoint x="880" y="620" />
            </Array>
          </mxGeometry>
        </mxCell>
        <mxCell id="uraAplfnoRZAoDlfQLzU-40" value="" style="endArrow=none;html=1;rounded=0;exitX=0.5;exitY=0;exitDx=0;exitDy=0;exitPerimeter=0;entryX=0.5;entryY=1;entryDx=0;entryDy=0;" parent="1" source="uraAplfnoRZAoDlfQLzU-35" target="uraAplfnoRZAoDlfQLzU-31" edge="1">
          <mxGeometry relative="1" as="geometry">
            <mxPoint x="633" y="460" as="sourcePoint" />
            <mxPoint x="793" y="460" as="targetPoint" />
          </mxGeometry>
        </mxCell>
        <mxCell id="uraAplfnoRZAoDlfQLzU-41" value="" style="endArrow=none;html=1;rounded=0;exitX=1;exitY=0.5;exitDx=0;exitDy=0;entryX=0;entryY=0.5;entryDx=0;entryDy=0;" parent="1" source="uraAplfnoRZAoDlfQLzU-11" target="uraAplfnoRZAoDlfQLzU-1" edge="1">
          <mxGeometry relative="1" as="geometry">
            <mxPoint x="650" y="400" as="sourcePoint" />
            <mxPoint x="810" y="400" as="targetPoint" />
          </mxGeometry>
        </mxCell>
        <mxCell id="uraAplfnoRZAoDlfQLzU-42" value="" style="endArrow=none;html=1;rounded=0;exitX=1;exitY=0.5;exitDx=0;exitDy=0;entryX=0;entryY=0;entryDx=0;entryDy=0;" parent="1" source="uraAplfnoRZAoDlfQLzU-10" target="uraAplfnoRZAoDlfQLzU-1" edge="1">
          <mxGeometry relative="1" as="geometry">
            <mxPoint x="300" y="150" as="sourcePoint" />
            <mxPoint x="340" y="150" as="targetPoint" />
          </mxGeometry>
        </mxCell>
        <mxCell id="uraAplfnoRZAoDlfQLzU-43" value="" style="endArrow=none;html=1;rounded=0;exitX=0.5;exitY=1;exitDx=0;exitDy=0;entryX=0.5;entryY=0;entryDx=0;entryDy=0;" parent="1" source="uraAplfnoRZAoDlfQLzU-8" target="uraAplfnoRZAoDlfQLzU-1" edge="1">
          <mxGeometry relative="1" as="geometry">
            <mxPoint x="310" y="160" as="sourcePoint" />
            <mxPoint x="350" y="160" as="targetPoint" />
          </mxGeometry>
        </mxCell>
        <mxCell id="uraAplfnoRZAoDlfQLzU-44" value="" style="endArrow=none;html=1;rounded=0;exitX=0.5;exitY=1;exitDx=0;exitDy=0;entryX=0.75;entryY=0;entryDx=0;entryDy=0;" parent="1" source="uraAplfnoRZAoDlfQLzU-9" target="uraAplfnoRZAoDlfQLzU-1" edge="1">
          <mxGeometry relative="1" as="geometry">
            <mxPoint x="320" y="170" as="sourcePoint" />
            <mxPoint x="360" y="170" as="targetPoint" />
          </mxGeometry>
        </mxCell>
        <mxCell id="uraAplfnoRZAoDlfQLzU-45" value="" style="endArrow=none;html=1;rounded=0;exitX=0.5;exitY=0;exitDx=0;exitDy=0;entryX=0.5;entryY=1;entryDx=0;entryDy=0;" parent="1" source="uraAplfnoRZAoDlfQLzU-16" target="uraAplfnoRZAoDlfQLzU-15" edge="1">
          <mxGeometry relative="1" as="geometry">
            <mxPoint x="660" y="400" as="sourcePoint" />
            <mxPoint x="810" y="400" as="targetPoint" />
          </mxGeometry>
        </mxCell>
        <mxCell id="uraAplfnoRZAoDlfQLzU-46" value="" style="endArrow=none;html=1;rounded=0;exitX=0.5;exitY=0;exitDx=0;exitDy=0;entryX=0.5;entryY=1;entryDx=0;entryDy=0;" parent="1" source="uraAplfnoRZAoDlfQLzU-12" target="uraAplfnoRZAoDlfQLzU-7" edge="1">
          <mxGeometry relative="1" as="geometry">
            <mxPoint x="670" y="410" as="sourcePoint" />
            <mxPoint x="820" y="410" as="targetPoint" />
          </mxGeometry>
        </mxCell>
        <mxCell id="uraAplfnoRZAoDlfQLzU-47" value="" style="endArrow=none;html=1;rounded=0;exitX=0.5;exitY=0;exitDx=0;exitDy=0;entryX=0.5;entryY=1;entryDx=0;entryDy=0;" parent="1" source="uraAplfnoRZAoDlfQLzU-14" target="uraAplfnoRZAoDlfQLzU-13" edge="1">
          <mxGeometry relative="1" as="geometry">
            <mxPoint x="680" y="420" as="sourcePoint" />
            <mxPoint x="830" y="420" as="targetPoint" />
          </mxGeometry>
        </mxCell>
        <mxCell id="uraAplfnoRZAoDlfQLzU-48" value="" style="endArrow=none;html=1;rounded=0;exitX=0.5;exitY=1;exitDx=0;exitDy=0;entryX=0.5;entryY=0;entryDx=0;entryDy=0;" parent="1" source="uraAplfnoRZAoDlfQLzU-24" target="uraAplfnoRZAoDlfQLzU-20" edge="1">
          <mxGeometry relative="1" as="geometry">
            <mxPoint x="690" y="430" as="sourcePoint" />
            <mxPoint x="840" y="430" as="targetPoint" />
          </mxGeometry>
        </mxCell>
        <mxCell id="uraAplfnoRZAoDlfQLzU-49" value="" style="endArrow=none;html=1;rounded=0;exitX=0;exitY=0.5;exitDx=0;exitDy=0;entryX=1;entryY=0.5;entryDx=0;entryDy=0;" parent="1" source="uraAplfnoRZAoDlfQLzU-21" target="uraAplfnoRZAoDlfQLzU-20" edge="1">
          <mxGeometry relative="1" as="geometry">
            <mxPoint x="950" y="180" as="sourcePoint" />
            <mxPoint x="850" y="440" as="targetPoint" />
          </mxGeometry>
        </mxCell>
        <mxCell id="uraAplfnoRZAoDlfQLzU-50" value="" style="endArrow=none;html=1;rounded=0;exitX=1;exitY=1;exitDx=0;exitDy=0;entryX=0;entryY=0.5;entryDx=0;entryDy=0;" parent="1" source="uraAplfnoRZAoDlfQLzU-20" target="uraAplfnoRZAoDlfQLzU-23" edge="1">
          <mxGeometry relative="1" as="geometry">
            <mxPoint x="710" y="450" as="sourcePoint" />
            <mxPoint x="860" y="450" as="targetPoint" />
          </mxGeometry>
        </mxCell>
        <mxCell id="uraAplfnoRZAoDlfQLzU-51" value="" style="endArrow=none;html=1;rounded=0;exitX=0;exitY=0.5;exitDx=0;exitDy=0;entryX=1;entryY=0.5;entryDx=0;entryDy=0;" parent="1" source="uraAplfnoRZAoDlfQLzU-32" target="uraAplfnoRZAoDlfQLzU-31" edge="1">
          <mxGeometry relative="1" as="geometry">
            <mxPoint x="720" y="460" as="sourcePoint" />
            <mxPoint x="870" y="460" as="targetPoint" />
          </mxGeometry>
        </mxCell>
        <mxCell id="uraAplfnoRZAoDlfQLzU-52" value="" style="endArrow=none;html=1;rounded=0;exitX=0;exitY=0.5;exitDx=0;exitDy=0;entryX=1;entryY=1;entryDx=0;entryDy=0;" parent="1" source="uraAplfnoRZAoDlfQLzU-33" target="uraAplfnoRZAoDlfQLzU-31" edge="1">
          <mxGeometry relative="1" as="geometry">
            <mxPoint x="730" y="470" as="sourcePoint" />
            <mxPoint x="880" y="470" as="targetPoint" />
          </mxGeometry>
        </mxCell>
        <mxCell id="uraAplfnoRZAoDlfQLzU-53" value="1, 1" style="text;strokeColor=none;fillColor=none;spacingLeft=4;spacingRight=4;overflow=hidden;rotatable=0;points=[[0,0.5],[1,0.5]];portConstraint=eastwest;fontSize=12;whiteSpace=wrap;html=1;" parent="1" vertex="1">
          <mxGeometry x="410" y="170" width="40" height="30" as="geometry" />
        </mxCell>
        <mxCell id="uraAplfnoRZAoDlfQLzU-54" value="0, N" style="text;strokeColor=none;fillColor=none;spacingLeft=4;spacingRight=4;overflow=hidden;rotatable=0;points=[[0,0.5],[1,0.5]];portConstraint=eastwest;fontSize=12;whiteSpace=wrap;html=1;" parent="1" vertex="1">
          <mxGeometry x="190" y="480" width="40" height="30" as="geometry" />
        </mxCell>
        <mxCell id="uraAplfnoRZAoDlfQLzU-55" value="0, N" style="text;strokeColor=none;fillColor=none;spacingLeft=4;spacingRight=4;overflow=hidden;rotatable=0;points=[[0,0.5],[1,0.5]];portConstraint=eastwest;fontSize=12;whiteSpace=wrap;html=1;" parent="1" vertex="1">
          <mxGeometry x="353" y="485" width="40" height="30" as="geometry" />
        </mxCell>
        <mxCell id="uraAplfnoRZAoDlfQLzU-56" value="0, N" style="text;strokeColor=none;fillColor=none;spacingLeft=4;spacingRight=4;overflow=hidden;rotatable=0;points=[[0,0.5],[1,0.5]];portConstraint=eastwest;fontSize=12;whiteSpace=wrap;html=1;" parent="1" vertex="1">
          <mxGeometry x="580" y="485" width="40" height="30" as="geometry" />
        </mxCell>
        <mxCell id="O2zsDS8yh-zxwhL4sajV-1" value="&lt;h1 style=&quot;line-height: 150%;&quot;&gt;&lt;div style=&quot;border-color: var(--border-color); font-size: 12px; line-height: 130%;&quot;&gt;&lt;font style=&quot;border-color: var(--border-color);&quot;&gt;&lt;span style=&quot;border-color: var(--border-color);&quot;&gt;&lt;span style=&quot;border-color: var(--border-color);&quot;&gt;&lt;span style=&quot;font-weight: 400;&quot;&gt;Accidente_geografico ( &lt;/span&gt;&lt;u style=&quot;&quot;&gt;ID Accidente&lt;/u&gt;&lt;/span&gt;&lt;span style=&quot;border-color: var(--border-color);&quot;&gt;:&lt;/span&gt;&lt;font style=&quot;font-weight: 400; border-color: var(--border-color);&quot; color=&quot;#808080&quot;&gt;&amp;nbsp;int&lt;/font&gt;&lt;span style=&quot;font-weight: 400;&quot;&gt;&amp;nbsp;, Nombre : &lt;font color=&quot;#808080&quot;&gt;varchar&lt;/font&gt;&lt;/span&gt;&lt;span style=&quot;font-weight: 400;&quot;&gt;&amp;nbsp; , Eje_horizontal: &lt;font color=&quot;#999999&quot;&gt;double&lt;/font&gt;&lt;/span&gt;&lt;font style=&quot;font-weight: 400;&quot; color=&quot;#999999&quot;&gt;, &lt;/font&gt;&lt;font color=&quot;#000000&quot; style=&quot;font-weight: 400;&quot;&gt;Eje_vertical&lt;/font&gt;&lt;font style=&quot;font-weight: 400;&quot; color=&quot;#999999&quot;&gt;&amp;nbsp;: double&lt;/font&gt;&lt;span style=&quot;font-weight: 400;&quot;&gt;)&lt;/span&gt;&lt;br&gt;&lt;/span&gt;&lt;/font&gt;&lt;/div&gt;&lt;div style=&quot;border-color: var(--border-color); font-size: 12px; line-height: 130%;&quot;&gt;&lt;font style=&quot;border-color: var(--border-color);&quot;&gt;&lt;span style=&quot;border-color: var(--border-color);&quot;&gt;&lt;span style=&quot;border-color: var(--border-color);&quot;&gt;&lt;span style=&quot;font-weight: 400;&quot;&gt;País (&lt;/span&gt;&lt;u&gt;Nombre&lt;/u&gt;&lt;/span&gt;&lt;span style=&quot;font-weight: 400; border-color: var(--border-color);&quot;&gt;&amp;nbsp;&lt;/span&gt;&lt;span style=&quot;font-weight: 400; border-color: var(--border-color);&quot;&gt;: &lt;font color=&quot;#808080&quot;&gt;varchar&lt;/font&gt;&lt;/span&gt;&lt;span style=&quot;font-weight: 400; border-color: var(--border-color);&quot;&gt;&amp;nbsp;, Poblacion: &lt;font color=&quot;#999999&quot;&gt;int, &lt;/font&gt;Extension&lt;font color=&quot;#999999&quot;&gt;: double&lt;/font&gt;&amp;nbsp;&amp;nbsp;&lt;/span&gt;&lt;span style=&quot;border-color: var(--border-color);&quot;&gt;&lt;span style=&quot;font-weight: 400;&quot;&gt;)&amp;nbsp;&lt;/span&gt;&lt;/span&gt;&lt;/span&gt;&lt;/font&gt;&lt;/div&gt;&lt;div style=&quot;border-color: var(--border-color); font-size: 12px; line-height: 130%;&quot;&gt;&lt;font style=&quot;border-color: var(--border-color);&quot;&gt;&lt;span style=&quot;border-color: var(--border-color);&quot;&gt;&lt;span style=&quot;font-weight: 400;&quot;&gt;Localidad (&lt;/span&gt;&lt;u&gt;ID_Localidad&lt;/u&gt;&lt;/span&gt;&lt;span style=&quot;font-weight: 400;&quot;&gt;: &lt;font color=&quot;#808080&quot;&gt;int&lt;/font&gt;&lt;/span&gt;&lt;b style=&quot;font-weight: 400; border-color: var(--border-color);&quot;&gt;,&lt;/b&gt;&lt;span style=&quot;font-weight: 400;&quot;&gt;&amp;nbsp;Nombre: &lt;font color=&quot;#999999&quot;&gt;varchar&lt;/font&gt;&lt;/span&gt;&lt;span style=&quot;font-weight: 400;&quot;&gt;)&amp;nbsp;&lt;/span&gt;&lt;/font&gt;&lt;/div&gt;&lt;div style=&quot;border-color: var(--border-color); font-size: 12px; line-height: 130%;&quot;&gt;&lt;span style=&quot;background-color: initial; font-weight: 400; border-color: var(--border-color);&quot;&gt;Montaña(&lt;/span&gt;&lt;span style=&quot;background-color: initial; border-color: var(--border-color);&quot;&gt;&lt;u&gt;&lt;i&gt;ID_Accidente&lt;/i&gt;&lt;/u&gt;&lt;/span&gt;&lt;span style=&quot;background-color: initial; font-weight: 400; border-color: var(--border-color);&quot;&gt;&amp;nbsp;:&lt;font color=&quot;#999999&quot;&gt;&amp;nbsp;int&lt;/font&gt;, Altura :&lt;font color=&quot;#999999&quot;&gt;&amp;nbsp;double&lt;/font&gt;&lt;/span&gt;&lt;span style=&quot;background-color: initial;&quot;&gt;&lt;span style=&quot;font-weight: 400;&quot;&gt;)&lt;/span&gt;&lt;i style=&quot;&quot;&gt;&lt;font style=&quot;&quot; color=&quot;#000000&quot;&gt;&amp;nbsp;&lt;/font&gt;&lt;/i&gt;&lt;/span&gt;&lt;br&gt;&lt;/div&gt;&lt;div style=&quot;border-color: var(--border-color); font-size: 12px; line-height: 130%;&quot;&gt;&lt;span style=&quot;background-color: initial; font-weight: 400;&quot;&gt;Lago (&lt;/span&gt;&lt;span style=&quot;background-color: initial;&quot;&gt;&lt;u&gt;&lt;i&gt;ID_Accidente&lt;/i&gt;&lt;/u&gt;&lt;/span&gt;&lt;span style=&quot;background-color: initial; font-weight: 400;&quot;&gt;: &lt;font color=&quot;#999999&quot;&gt;int&lt;/font&gt;, Extension: &lt;font color=&quot;#999999&quot;&gt;double&lt;/font&gt;&lt;/span&gt;&lt;span style=&quot;background-color: initial; font-weight: 400;&quot;&gt;)&lt;/span&gt;&lt;/div&gt;&lt;div style=&quot;border-color: var(--border-color); font-size: 12px; line-height: 130%;&quot;&gt;&lt;span style=&quot;background-color: initial; font-weight: 400;&quot;&gt;Rio (&lt;/span&gt;&lt;span style=&quot;background-color: initial;&quot;&gt;&lt;u&gt;&lt;i&gt;ID_Accidente&lt;/i&gt;&lt;/u&gt;&lt;/span&gt;&lt;span style=&quot;background-color: initial; font-weight: 400;&quot;&gt;: &lt;font color=&quot;#999999&quot;&gt;int&lt;/font&gt;, Longitud: &lt;font color=&quot;#999999&quot;&gt;double&lt;/font&gt;)&lt;/span&gt;&lt;/div&gt;&lt;div style=&quot;border-color: var(--border-color); font-weight: 400; font-size: 12px; line-height: 150%;&quot;&gt;&lt;/div&gt;&lt;span style=&quot;border-color: var(--border-color); font-size: 12px;&quot;&gt;&lt;div style=&quot;border-color: var(--border-color); line-height: 150%;&quot;&gt;&lt;font style=&quot;border-color: var(--border-color);&quot;&gt;&lt;b style=&quot;font-style: normal; font-weight: 400; border-color: var(--border-color);&quot;&gt;Ubicar(&lt;/b&gt;&lt;b style=&quot;font-style: normal; font-weight: 400; border-color: var(--border-color);&quot;&gt;&amp;nbsp;&lt;/b&gt;&lt;span style=&quot;border-color: var(--border-color);&quot;&gt;&lt;i&gt;&lt;u&gt;Accidente&amp;nbsp;&lt;/u&gt;&lt;/i&gt;&lt;/span&gt;&lt;/font&gt;&lt;span style=&quot;font-weight: 400; background-color: initial; border-color: var(--border-color);&quot;&gt;&lt;b style=&quot;border-color: var(--border-color);&quot;&gt;&lt;u style=&quot;&quot;&gt;&lt;i&gt;[Ref_ ID_Accidente] , País [Ref_ID_País]&lt;/i&gt;&lt;/u&gt;&lt;/b&gt;&lt;/span&gt;&lt;span style=&quot;font-weight: 400; background-color: initial;&quot;&gt;&lt;i&gt;&amp;nbsp;&lt;/i&gt;&lt;/span&gt;&lt;span style=&quot;font-style: normal; font-weight: 400; background-color: initial;&quot;&gt;)&lt;/span&gt;&lt;/div&gt;&lt;div style=&quot;border-color: var(--border-color); line-height: 150%;&quot;&gt;&lt;span style=&quot;font-style: normal;&quot;&gt;&lt;span style=&quot;font-weight: normal;&quot;&gt;Transcurrir&lt;/span&gt;( Rio&lt;/span&gt;&lt;span style=&quot;background-color: initial; font-weight: normal; border-color: var(--border-color);&quot;&gt;&lt;span style=&quot;border-color: var(--border-color); background-color: initial;&quot;&gt;&lt;b style=&quot;border-color: var(--border-color);&quot;&gt;&lt;i&gt;&lt;u&gt;&amp;nbsp;&lt;/u&gt;&lt;/i&gt;&lt;/b&gt;&lt;i&gt;&lt;b style=&quot;text-decoration-line: underline; border-color: var(--border-color);&quot;&gt;[Ref__ID_Accidente] , Localidad&lt;/b&gt;&lt;b style=&quot;text-decoration-line: underline; border-color: var(--border-color);&quot;&gt;&amp;nbsp;&lt;/b&gt;&lt;b style=&quot;text-decoration-line: underline; border-color: var(--border-color);&quot;&gt;[Ref_ID_Localidad]&lt;/b&gt;&lt;/i&gt;&lt;/span&gt;&lt;span style=&quot;text-decoration-line: underline; font-style: normal; border-color: var(--border-color); background-color: initial;&quot;&gt;&amp;nbsp;&lt;/span&gt;&lt;/span&gt;&lt;span style=&quot;font-style: normal; background-color: initial; font-weight: normal;&quot;&gt;)&amp;nbsp;&lt;/span&gt;&lt;/div&gt;&lt;/span&gt;&lt;/h1&gt;" style="text;html=1;strokeColor=none;fillColor=#dbdbdb;spacing=5;spacingTop=-20;whiteSpace=wrap;overflow=hidden;rounded=0;fontColor=#333333;" parent="1" vertex="1">
          <mxGeometry x="620" y="260" width="650" height="190" as="geometry" />
        </mxCell>
      </root>
    </mxGraphModel>
  </diagram>
</mxfile>
